<svg width="361" height="337" viewBox="0 0 361 337" fill="none" xmlns="http://www.w3.org/2000/svg">
<circle cx="132.5" cy="151.5" r="132.5" fill="white"/>
<path d="M358.408 137.531L356.014 131.854L339.44 121.971L318.416 122.124L306.936 108.374L293.709 113.714L283.18 109.693L275.876 112.148L262.157 88.1773L252.426 87.3491L245.859 61.7825L219.586 57.7929L214.461 64.3605L192.516 64.0844L185.457 74.3668L184.75 87.1651L177.875 80.136L163.848 82.53L160.196 75.3791L134.537 77.558L98.8114 62.3048L78.7391 61.1992L63.6999 74.6727L69.5922 95.4825L39.2376 122.799L41.3866 137.746L35.6161 135.26L26.5923 147.844L41.3244 166.29L69.3472 171.63L75.4236 178.598L99.5787 173.073L102.556 167.181L125.513 161.686L150.037 176.48L154.18 189.77L162.222 196.032L161.793 206.589L168.176 218.805L154.149 222.734L148.932 232.433L134.752 245.108L144.328 253.795L171.768 238.509L185.149 221.414L192.792 216.503L207.77 214.17L205.529 219.725L204.823 220.8L213.355 230.836L239.904 230.959L241.224 236.822L218.358 249.589L238.83 259.779L239.015 266.532L235.27 274.603L242.298 279.207L254.115 274.971L279.805 258.368L295.825 259.104L298.219 248.913L289.381 248.331L276.613 253.364L266.884 241.578L245.856 228.381L271.609 226.57L271.886 226.723L283.55 215.213L315.163 201.433L327.255 200.328L328.881 186.056L341.25 178.137L354.909 177.677L358.193 164.971L352.269 147.966L358.408 137.531Z" fill="url(#paint0_linear_1_7)"/>
<path d="M207.182 127.455H212.818V158.273C212.818 161.455 212.068 164.295 210.568 166.795C209.083 169.28 206.985 171.242 204.273 172.682C201.561 174.106 198.379 174.818 194.727 174.818C191.076 174.818 187.894 174.106 185.182 172.682C182.47 171.242 180.364 169.28 178.864 166.795C177.379 164.295 176.636 161.455 176.636 158.273V127.455H182.273V157.818C182.273 160.091 182.773 162.114 183.773 163.886C184.773 165.644 186.197 167.03 188.045 168.045C189.909 169.045 192.136 169.545 194.727 169.545C197.318 169.545 199.545 169.045 201.409 168.045C203.273 167.03 204.697 165.644 205.682 163.886C206.682 162.114 207.182 160.091 207.182 157.818V127.455ZM224.074 174V127.455H239.801C243.453 127.455 246.438 128.114 248.756 129.432C251.089 130.735 252.816 132.5 253.938 134.727C255.059 136.955 255.619 139.439 255.619 142.182C255.619 144.924 255.059 147.417 253.938 149.659C252.831 151.902 251.119 153.689 248.801 155.023C246.483 156.341 243.513 157 239.892 157H228.619V152H239.71C242.21 152 244.218 151.568 245.733 150.705C247.248 149.841 248.347 148.674 249.028 147.205C249.725 145.72 250.074 144.045 250.074 142.182C250.074 140.318 249.725 138.652 249.028 137.182C248.347 135.712 247.241 134.561 245.71 133.727C244.18 132.879 242.15 132.455 239.619 132.455H229.71V174H224.074Z" fill="white"/>
<defs>
<linearGradient id="paint0_linear_1_7" x1="192.5" y1="57.7929" x2="198.939" y2="303.729" gradientUnits="userSpaceOnUse">
<stop offset="0.129525" stop-color="#0038FF"/>
<stop offset="0.573313" stop-color="#FF7A00"/>
</linearGradient>
</defs>
</svg>
