<svg width="64" height="64" viewBox="0 0 64 64" fill="none" xmlns="http://www.w3.org/2000/svg">
<circle cx="32" cy="32" r="32" fill="#D3D3D3"/>
<path d="M32.4648 33C38.908 33 44.1314 27.7767 44.1314 21.3334C44.1314 14.89 38.908 9.66669 32.4648 9.66669C26.0215 9.66669 20.7982 14.89 20.7982 21.3334C20.7982 27.7767 26.0215 33 32.4648 33Z" stroke="#6F6F6F" stroke-width="2" stroke-linecap="round" stroke-linejoin="round"/>
<path fill-rule="evenodd" clip-rule="evenodd" d="M52.15 56.8605C52.7013 56.4131 53.2374 55.9478 53.7575 55.4653C50.321 45.8748 41.9277 39 32 39C31.9888 39 31.9777 39.0002 31.9665 39.0006C26.9802 39.1679 22.1745 40.9075 18.2364 43.9704C14.4652 46.9035 11.6744 50.9065 10.2243 55.4484C10.7501 55.9369 11.2923 56.4079 11.8501 56.8605C11.897 56.7848 11.9344 56.7016 11.9605 56.6119C13.2326 52.2252 15.859 48.3531 19.4642 45.5491L18.8503 44.7598L19.4642 45.5491C23.065 42.7486 27.458 41.1566 32.0168 41C41.1197 41.0079 48.9687 47.4467 52.0518 56.651C52.0769 56.726 52.1101 56.796 52.15 56.8605Z" fill="#6F6F6F"/>
</svg>
